<?xml version="1.0" encoding="UTF-8"?>
<svg viewBox="0 0 321.81152 44.742386" xmlns="http://www.w3.org/2000/svg">
 <g transform="translate(-140.38 -581.42)">
  <path d="m455.56699,581.41956-63.11345,4.50818-14.34599,13.87964c-101.31149.74485-68.6191,1.49803-169.93059,2.24297-.86532-1.13397-.32763-1.85669 0-2.64279l12.72484-17.96568c-25.13759,10.8158-49.77267,23.06983-79.01395,22.14071-2.79007-.10197-1.24228,4.0705.8883,4.64142 27.38267,3.05633 56.39155,4.35976 74.0617,17.83244 1.2361.79625 4.15952-3.15025 3.3089-3.9529l-7.95025-10.37081c-.94969-1.15281.36737-1.35364 1.33244-1.31029l164.97834-2.44279 19.56473,12.79148 59.13833.77731c9.04974-.36085 3.55894-5.96167.68839-7.32847l-15.96709-7.23959c1.68578-3.06493 1.85733-6.12903-.39974-9.19386l16.61115-11.14814c1.51216-.70855.82476-4.74494-2.57606-5.21883zm-12.70264,4.28614c.0851-.0101.12628.0156.15542.0439 .099.099-.43832.46063-.46632.48861-.22236.22231-.27395,1.25844-.64405,1.44344-.48189.24097-1.03305.54449-1.42127.93269-.0975.0975.0192.92026.0888.95501 .2274.11358.99034-.20897 1.1992,0 .0512.0512-.20048.53525-.22208.62176-.049.19707-.0177.70626-.15542.84389-.66203.66191-1.7837.73014-2.68713,1.33242-.43036.28688-.66302.73983-1.13254,1.02158-.98431.59049-2.16946.51998-3.15345,1.11038-.34374.20622-.55251.73928-.93271.86603-1.33583.44526-2.88663.61426-4.17499,1.0438-1.34948.44975-3.20343-.48578-4.4859.15537-.47471.2374-.84323.74367-1.31024.97714-.35516.17759-.99357.39396-1.11036.51083-.3312.33114-1.44537-1.35518-1.97647-1.48797-1.30064-.32519 2.0086-4.24654-1.51011-2.48724-.42933.21472-.77813.57028-1.26581.73288-.40563.13516-1.20456.33717-1.55452.59963-.30864.23146-.78967.23777-1.13258.46639-2.56378,1.7091-3.55577,1.44344-6.46235,1.44344-.82713,0-1.59889-.16662-2.3762.22204-.36275.18134-.55249.54211-.86609.77732-1.17769.88322-2.77375,1.17695-4.24161,1.17695-.32334,0-1.20052.15409-1.46569-.11102-.16106-.16113 2.97198-2.94979 3.57539-3.55317 2.11863-2.1187 6.5134-4.95363 9.39373-5.52967 1.23593-.24719 2.45984-.42679 3.68644-.77723 2.14108-.61179 3.90699-1.87837 6.01821-2.37622-.0125.009-.0139.021.0221.0439h.0221c.27763.17585 1.53108.68797 1.66555.73287 1.28779.42917 2.22698-.0887 3.50877-.0887 1.8106,0-3.79399,1.96113-3.19786,3.15344 .3562.7124 2.90812.56772 3.86408.35538 1.54907-.34422 8.66508-2.11395 9.34933-2.79817 .5443-.54431 2.00708-1.52775 2.68709-1.75436 .33336-.11112 2.1135-1.02113 2.7093-1.08816l.00024.00082zm-36.08703,1.79872c.67154-.0384 1.6065.11111 2.08749.11111 .40889,0 1.13898-.10471 1.35465.11102 .38641.38637-.56597,1.58024-.88829,1.6877-1.16438.3882-1.92774.7529-3.04242,1.31028-.23612.11807-.90956,1.13059-1.04375,1.39909-.31337.6267-1.3941,1.08065-1.84321,1.75436-.80545,1.20814-3.89283,2.04966-4.97446,3.13123-.51213.51211-1.60686-1.63539-2.26515-.97714-.12665.12666-1.40784.96836-1.7988.57741-.24694-.247-1.45611-.88413-1.7766-.77723-2.02751.67582-9.11016,4.96936-10.99267,3.08679-.99217-.99223 2.75636-3.58784 3.22008-3.81966 .65969-.32986 1.27201-1.39817 1.95425-1.90983 .55142-.41362.74197-1.19268 1.33245-1.48788 1.07088-.53544 2.28134-1.18043 3.3089-1.86538 .29973-.19991.47587-.60448.82167-.77732 1.98122-.99067 6.44886.78235 2.73151,2.13186 .18828.31386.69616.76955.95493.51084 1.03399-1.03402 8.30532-3.08669 10.30423-4.08614 .13641-.0686.33134-.0983.55519-.11111zm28.15899,13.34667c0,0-.62298,1.2631-.15545,2.354 .0337.0786-2.52138.13671-6.35133.19981 .0366-.49026.0756-1.31824.24429-2.53159l6.26249-.0219v-.00032zm-20.80834.0887c.26121.28395.57239.56022.95491.79945 .44917.2845.93115.52583 1.39907.77723 .57094.31797 1.18751.5369 1.82101.68843 .17904.0348.35696.0503.53298.0887h.0221c.008,0 .006.0183.0222.022h.0221l.0444.0219c.0489.0128.1114.021.15545.0439 .0831.0329.17744.0814.33311.13324-7.06877.0649-16.45779.10864-27.5816.15546 .0712-.0412.1524-.0658.22208-.11102h.11103c.49837.009.99317-.0302 1.4879-.0887l.19987-.0219c1.73319-.24965 2.73794-1.25953 3.13124-2.44288l17.12191-.0668 .00024.00099zm17.45502,5.79357c.3954.23722 1.01922.0649 1.31023.35528 .23358.23357.85165.64792 1.28804.86612 .41443.20713 1.68138.29813 1.84321.62186 .4238.84755 2.68706,1.55875 2.68706,2.24288 0,1.91797-2.4845.22479-3.24224-.53296-.27055-.2706-1.81089.21198-1.97646.3775-.0989.0989-.009.58171-.2887.48861-1.05369-.35125-.41447-.85871-.99933-1.44353-.97402-.97402-3.59801-2.13918-.62181-2.97576zm-22.4739.77723c2.62631-.0658 6.51568.19982 8.21674.19982 1.44348,0 7.49268-.31751 8.52765.19991 .6758.3379 1.11058,1.37338 1.75438,1.90982 1.13459.9455 3.05712,1.46585 1.93205,3.15354-1.82053,2.73068-7.14323-.12089-9.06063-1.39917-.43289-.28852-2.40482-1.17988-2.66489-.39973-.49011,1.47042 2.9668,3.54001 2.42061,4.08614-.19992.2-.79872-.51047-.99933-.57732-.6597-.21993-1.33099-.21563-1.95425.19991-.45484.30316-.99727.51075-1.64335.51075-2.03727,0-5.8048-2.83585-7.63935-3.75308-.64355-.32172-.91136-1.22232-1.28803-1.59891-.53403-.53406-1.89543-.71138-2.13191-1.44352 .57135.0952 1.76101-.71779 2.44281-.88834 .47126-.11779 1.21207-.17778 2.0875-.19982zm-23.0735.26648c1.45291.0146 4.32896.0869 4.33045.0887 .41975.41967.82059,1.41308 1.39907,1.79872 .41144.27435 1.12663.46584 1.44348.88834 .43594.58125.36189,1.34559.68843,1.99863 .21729.43466 1.1832,1.20905.93271,1.71001-1.49811,2.99624-6.9197-2.36058-8.4166-3.10901-.98085-.49053-2.15019-1.15089-2.84255-1.84325-.18007-.18006-.13793-.51029-.11104-.82167-.0636.0128-.098.0128-.11104,0-.11359-.11358.11104-.30581.11104-.46639 .0235.12775.0146.29675 0,.46639 .40073-.0787 1.6504-.58445 1.75438-.68843 .0124-.0119.33738-.0274.82167-.0219v-.00014zm11.48123.0439c.68134-.0137 1.30279.0622 1.75439.28871 1.06031.53013 2.00544,1.36433 3.24228,1.77659 .44911.1497.82485,1.5048 1.33244,1.84325 .28812.19195 2.31416,1.83402 2.24295,1.9764-.19353.38711-1.68793.15547-2.17633.15547-3.30073,0-6.27029-2.30434-8.52764-3.99734-.36314-.27234-.9289-.16086-1.13257-.4664-.23965-.35939.1392-1.27206.11104-1.17695 .74309-.12382 2.0179-.37677 3.15344-.39973z"/>
 </g>
</svg>
